<svg width="41" height="41" viewBox="0 0 41 41" fill="none" xmlns="http://www.w3.org/2000/svg">
<path d="M20.2686 4.05069L5.11201 12.9884C5.05992 13.0191 5.02795 13.0751 5.02795 13.1356V36.3501C5.02795 36.4444 5.10444 36.5209 5.19879 36.5209H16.0002C16.0945 36.5209 16.171 36.4444 16.171 36.3501V24.7433C16.171 24.6489 16.2475 24.5724 16.3418 24.5724H24.6708C24.7651 24.5724 24.8416 24.6489 24.8416 24.7433V36.3501C24.8416 36.4444 24.9181 36.5209 25.0124 36.5209H35.8012C35.8956 36.5209 35.9721 36.4444 35.9721 36.3501V13.1365C35.9721 13.0755 35.9396 13.0192 35.8868 12.9886L20.441 4.04998C20.3876 4.0191 20.3217 4.01937 20.2686 4.05069Z" fill="white" stroke="white" stroke-width="3.41667"/>
</svg>
