<svg width="22" height="24" viewBox="0 0 22 24" fill="none" xmlns="http://www.w3.org/2000/svg">
<mask id="path-1-inside-1_131_56" fill="white">
<path fill-rule="evenodd" clip-rule="evenodd" d="M20.5818 0C21.1341 0 21.5818 0.447716 21.5818 1V23C21.5818 23.5523 21.1341 24 20.5818 24H18.4441C17.8918 24 17.4441 23.5523 17.4441 23V13.7078L0.754118 23.5551C0.420807 23.7517 4.00543e-05 23.5115 4.00543e-05 23.1245L3.8147e-05 0.866501C3.8147e-05 0.481508 0.416883 0.240959 0.750216 0.433592L17.4441 10.081V1C17.4441 0.447715 17.8918 0 18.4441 0H20.5818Z"/>
</mask>
<path fill-rule="evenodd" clip-rule="evenodd" d="M20.5818 0C21.1341 0 21.5818 0.447716 21.5818 1V23C21.5818 23.5523 21.1341 24 20.5818 24H18.4441C17.8918 24 17.4441 23.5523 17.4441 23V13.7078L0.754118 23.5551C0.420807 23.7517 4.00543e-05 23.5115 4.00543e-05 23.1245L3.8147e-05 0.866501C3.8147e-05 0.481508 0.416883 0.240959 0.750216 0.433592L17.4441 10.081V1C17.4441 0.447715 17.8918 0 18.4441 0H20.5818Z" fill="white"/>
<path d="M17.4441 13.7078L16.9359 12.8465L18.4441 11.9567V13.7078H17.4441ZM0.754118 23.5551L0.245958 22.6938H0.24596L0.754118 23.5551ZM4.00543e-05 23.1245H1.00004H4.00543e-05ZM3.8147e-05 0.866501L-0.999962 0.866501V0.866501H3.8147e-05ZM0.750216 0.433592L0.249859 1.29941V1.29941L0.750216 0.433592ZM17.4441 10.081H18.4441V11.8138L16.9437 10.9468L17.4441 10.081ZM20.5818 1V1V-1C21.6864 -1 22.5818 -0.104568 22.5818 1H20.5818ZM20.5818 23V1H22.5818V23H20.5818ZM20.5818 23H20.5818H22.5818C22.5818 24.1046 21.6864 25 20.5818 25V23ZM18.4441 23H20.5818V25H18.4441V23ZM18.4441 23V25C17.3395 25 16.4441 24.1046 16.4441 23H18.4441ZM18.4441 13.7078V23H16.4441V13.7078H18.4441ZM0.24596 22.6938L16.9359 12.8465L17.9522 14.569L1.26228 24.4163L0.24596 22.6938ZM1.00004 23.1245C1.00004 22.7375 0.579273 22.4972 0.245958 22.6938L1.26228 24.4163C0.262341 25.0063 -0.99996 24.2855 -0.99996 23.1245H1.00004ZM1.00004 0.866501L1.00004 23.1245H-0.99996L-0.999962 0.866501L1.00004 0.866501ZM0.249859 1.29941C0.583191 1.49204 1.00004 1.2515 1.00004 0.866501H-0.999962C-0.999962 -0.288479 0.250576 -1.01013 1.25057 -0.432227L0.249859 1.29941ZM16.9437 10.9468L0.249859 1.29941L1.25057 -0.432228L17.9444 9.21513L16.9437 10.9468ZM18.4441 1V10.081H16.4441V1H18.4441ZM18.4441 1H16.4441C16.4441 -0.104569 17.3395 -1 18.4441 -1V1ZM20.5818 1H18.4441V-1H20.5818V1Z" fill="white" mask="url(#path-1-inside-1_131_56)"/>
</svg>
