<svg width="24" height="24" viewBox="0 0 24 24" fill="none" xmlns="http://www.w3.org/2000/svg">
<mask id="path-1-inside-1_131_52" fill="white">
<path fill-rule="evenodd" clip-rule="evenodd" d="M2.20911 0C1.65682 0 1.20911 0.447716 1.20911 1V23C1.20911 23.5523 1.65682 24 2.20911 24H4.34681C4.89909 24 5.34681 23.5523 5.34681 23V13.7078L22.0368 23.5551C22.3701 23.7517 22.7909 23.5115 22.7909 23.1245L22.7909 0.866501C22.7909 0.481508 22.374 0.240959 22.0407 0.433592L5.34681 10.081V1C5.34681 0.447715 4.89909 0 4.34681 0H2.20911Z"/>
</mask>
<path fill-rule="evenodd" clip-rule="evenodd" d="M2.20911 0C1.65682 0 1.20911 0.447716 1.20911 1V23C1.20911 23.5523 1.65682 24 2.20911 24H4.34681C4.89909 24 5.34681 23.5523 5.34681 23V13.7078L22.0368 23.5551C22.3701 23.7517 22.7909 23.5115 22.7909 23.1245L22.7909 0.866501C22.7909 0.481508 22.374 0.240959 22.0407 0.433592L5.34681 10.081V1C5.34681 0.447715 4.89909 0 4.34681 0H2.20911Z" fill="white"/>
<path d="M5.34681 13.7078L5.85497 12.8465L4.34681 11.9567V13.7078H5.34681ZM22.0368 23.5551L22.5449 22.6938H22.5449L22.0368 23.5551ZM22.7909 23.1245H21.7909H22.7909ZM22.7909 0.866501L23.7909 0.866501V0.866501H22.7909ZM22.0407 0.433592L22.541 1.29941V1.29941L22.0407 0.433592ZM5.34681 10.081H4.34681V11.8138L5.84717 10.9468L5.34681 10.081ZM2.20911 1V1V-1C1.10454 -1 0.209106 -0.104568 0.209106 1H2.20911ZM2.20911 23V1H0.209106V23H2.20911ZM2.20911 23H2.20911H0.209106C0.209106 24.1046 1.10454 25 2.20911 25V23ZM4.34681 23H2.20911V25H4.34681V23ZM4.34681 23V25C5.45138 25 6.34681 24.1046 6.34681 23H4.34681ZM4.34681 13.7078V23H6.34681V13.7078H4.34681ZM22.5449 22.6938L5.85497 12.8465L4.83865 14.569L21.5286 24.4163L22.5449 22.6938ZM21.7909 23.1245C21.7909 22.7375 22.2116 22.4972 22.5449 22.6938L21.5286 24.4163C22.5286 25.0063 23.7909 24.2855 23.7909 23.1245H21.7909ZM21.7909 0.866501L21.7909 23.1245H23.7909L23.7909 0.866501L21.7909 0.866501ZM22.541 1.29941C22.2077 1.49204 21.7909 1.2515 21.7909 0.866501H23.7909C23.7909 -0.288479 22.5403 -1.01013 21.5403 -0.432227L22.541 1.29941ZM5.84717 10.9468L22.541 1.29941L21.5403 -0.432228L4.84645 9.21513L5.84717 10.9468ZM4.34681 1V10.081H6.34681V1H4.34681ZM4.34681 1H6.34681C6.34681 -0.104569 5.45138 -1 4.34681 -1V1ZM2.20911 1H4.34681V-1H2.20911V1Z" fill="white" mask="url(#path-1-inside-1_131_52)"/>
</svg>
