<svg width="41" height="41" viewBox="0 0 41 41" fill="none" xmlns="http://www.w3.org/2000/svg">
<path fill-rule="evenodd" clip-rule="evenodd" d="M30.6583 28.0119C32.7924 25.2642 34.0633 21.8134 34.0633 18.0647C34.0633 9.1018 26.7974 1.83554 17.8341 1.83554C8.87076 1.83554 1.60492 9.1018 1.60492 18.0647C1.60492 27.0276 8.87076 34.2939 17.8341 34.2939C21.818 34.2939 25.4665 32.8591 28.291 30.4768L36.4789 38.664C37.1458 39.3313 38.2277 39.3313 38.8946 38.664C39.562 37.9975 39.562 36.9156 38.8946 36.2483L30.6583 28.0119ZM17.8341 31.0482C10.6638 31.0482 4.85059 25.235 4.85059 18.0647C4.85059 10.8944 10.6638 5.08121 17.8341 5.08121C25.0044 5.08121 30.8176 10.8944 30.8176 18.0647C30.8176 25.235 25.0044 31.0482 17.8341 31.0482Z" fill="white" stroke="white" stroke-width="0.854167"/>
</svg>
